{"title":"Cure 1997 DVDRip Xvid English Subtitles BigPerm LKRG","uid":6846654,"size":1090131192,"categoryP":"video","categoryS":"movies","magnet":"?xt=urn:btih:ae8d1a5490ca14aae18c28374463730678ab7ac1&amp;dn=Cure+1997+DVDRip+Xvid+English+Subtitles+BigPerm+LKRG&amp;tr=udp%3A%2F%2Ftracker.openbittorrent.com%3A80&amp;tr=udp%3A%2F%2Fopen.demonii.com%3A1337&amp;tr=udp%3A%2F%2Ftracker.coppersurfer.tk%3A6969&amp;tr=udp%3A%2F%2Fexodus.desync.com%3A6969","seeders":1,"leechers":1,"uploader":".BONE.","files":2,"time":1322375467,"description":"PLOT\n\nA wave of gruesome murders is sweeping Tokyo. The only connection is a bloody X carved\ninto the neck of each of the victims..\n\n\nEncoded By .......: BigPerm\nRuntime ..........: 1h 51mn\nFile Size ........: 1.02 GiB\nResolution .......: 624 x 336 &lt;a href=&quot;\nhttp://www.imdb.com/title/tt0123948/&quot; rel=&quot;nofollow&quot; target=&quot;_NEW&quot;&gt;\nhttp://www.imdb.com/title/tt0123948/&lt;/a&gt;\nSource ...........: DVDR\nGenre ............: Crime,Horror,Mystery\nLanguage .........: Japanese\nSubtitles ........: English\nVideo\nID : 0\nFormat : MPEG-4 Visual\nFormat profile : Advanced Simple@L5\nFormat settings, BVOP : Yes\nFormat settings, QPel : No\nFormat settings, GMC : No warppoints\nFormat settings, Matrix : Default (H.263)\nMuxing mode : Packed bitstream\nCodec ID : XVID\nCodec ID/Hint : XviD\nDuration : 1h 51mn\nBit rate : 848 Kbps\nWidth : 624 pixels\nHeight : 336 pixels\nDisplay aspect ratio : 1.857\nFrame rate : 23.976 fps\nColor space : YUV\nChroma subsampling : 4:2:0\nBit depth : 8 bits\nScan type : Progressive\nCompression mode : Lossy\nBits/(Pixel*Frame) : 0.169\nStream size : 675 MiB (65%)\nWriting library : XviD 1.2.1 (UTC 2008-12-04)\nAudio\nID : 1\nFormat : AC-3\nFormat/Info : Audio Coding 3\nMode extension : CM (complete main)\nCodec ID : 2000\nDuration : 1h 51mn\nBit rate mode : Constant\nBit rate : 448 Kbps\nChannel(s) : 2 channels\nChannel positions : Front: L R\nSampling rate : 48.0 KHz\nBit depth : 16 bits\nCompression mode : Lossy\nStream size : 357 MiB (34%)\nAlignment : Split accross interleaves\nInterleave, duration : 42 ms (1.00 video frame)\nInterleave, preload duration : 500 ms\n","torrent":{"xt":"urn:btih:ae8d1a5490ca14aae18c28374463730678ab7ac1","amp;dn":"Cure+1997+DVDRip+Xvid+English+Subtitles+BigPerm+LKRG","amp;tr":["udp%3A%2F%2Ftracker.openbittorrent.com%3A80","udp%3A%2F%2Fopen.demonii.com%3A1337","udp%3A%2F%2Ftracker.coppersurfer.tk%3A6969","udp%3A%2F%2Fexodus.desync.com%3A6969"],"infoHash":"ae8d1a5490ca14aae18c28374463730678ab7ac1","infoHashBuffer":{"type":"Buffer","data":[174,141,26,84,144,202,20,170,225,140,40,55,68,99,115,6,120,171,122,193]},"announce":[],"urlList":[]}}